<svg xmlns="http://www.w3.org/2000/svg" viewBox="0 0 700 380" role="img" aria-label="Sequential boosting: correct residuals">
  <rect width="700" height="380" rx="12" fill="#f8fafc"/>
  <rect x="24" y="20" width="652" height="56" rx="8" fill="#fff" stroke="#3b82f6" stroke-width="2"/>
  <text x="350" y="54" text-anchor="middle" font-family="DejaVu Sans, sans-serif" font-size="18" fill="#3b82f6" font-weight="700">Sequential boosting: correct residuals</text>
  <rect x="24" y="88" width="652" height="252" rx="8" fill="#fff" stroke="#e2e8f0" stroke-width="1.5"/>
  <g transform="translate(90, 108)"><rect x="8" y="28" width="64" height="30" rx="6" fill="#fee2e2" stroke="#ef4444" stroke-width="2"/>
<text x="40" y="48" text-anchor="middle" font-family="DejaVu Sans, sans-serif" font-size="9" fill="#b91c1c" font-weight="600">err +5m</text>
<line x1="72" y1="43" x2="98" y2="43" stroke="#64748b" stroke-width="2"/><polygon points="98,43 92,40 92,46" fill="#64748b"/>
<rect x="98" y="28" width="64" height="30" rx="6" fill="#fef3c7" stroke="#f59e0b" stroke-width="2"/>
<text x="130" y="48" text-anchor="middle" font-family="DejaVu Sans, sans-serif" font-size="9" fill="#b45309" font-weight="600">fix -4m</text>
<line x1="162" y1="43" x2="188" y2="43" stroke="#64748b" stroke-width="2"/><polygon points="188,43 182,40 182,46" fill="#64748b"/>
<rect x="188" y="28" width="64" height="30" rx="6" fill="#dcfce7" stroke="#22c55e" stroke-width="2"/>
<text x="220" y="48" text-anchor="middle" font-family="DejaVu Sans, sans-serif" font-size="9" fill="#15803d" font-weight="600">fix -1m</text>
<rect x="70" y="88" width="160" height="26" rx="8" fill="#ede9fe" stroke="#7c3aed" stroke-width="2"/>
<text x="150" y="106" text-anchor="middle" font-family="DejaVu Sans, sans-serif" font-size="10" fill="#6d28d9" font-weight="700">Sequential fix</text></g>
  <text x="350" y="352" text-anchor="middle" font-family="DejaVu Sans, sans-serif" font-size="12" fill="#64748b">Each tree learns the previous model's error</text>
</svg>