<svg xmlns="http://www.w3.org/2000/svg" viewBox="0 0 720 320" role="img" aria-label="Random Forest (parallel) vs XGBoost (sequential + fast)">
  <rect width="720" height="320" rx="12" fill="#f8fafc"/>
  <rect x="20" y="20" width="332" height="248" rx="10" fill="#fff" stroke="#e2e8f0" stroke-width="1.5"/>
  <rect x="20" y="20" width="332" height="44" rx="10" fill="#fff7ed" stroke="#f97316" stroke-width="1.5"/>
  <text x="186.0" y="48" text-anchor="middle" font-family="DejaVu Sans, sans-serif" font-size="15" fill="#c2410c" font-weight="700">Random Forest (parallel)</text>
  <g transform="translate(44, 76)"><circle cx="40" cy="40" r="14" fill="#dbeafe" stroke="#3b82f6" stroke-width="2"/>
<line x1="40" y1="54" x2="30" y2="76" stroke="#3b82f6" stroke-width="1.5"/>
<line x1="40" y1="54" x2="50" y2="76" stroke="#3b82f6" stroke-width="1.5"/>
<text x="40" y="90" text-anchor="middle" font-family="DejaVu Sans, sans-serif" font-size="9" fill="#64748b">T1</text>
<circle cx="100" cy="40" r="14" fill="#dbeafe" stroke="#3b82f6" stroke-width="2"/>
<line x1="100" y1="54" x2="90" y2="76" stroke="#3b82f6" stroke-width="1.5"/>
<line x1="100" y1="54" x2="110" y2="76" stroke="#3b82f6" stroke-width="1.5"/>
<text x="100" y="90" text-anchor="middle" font-family="DejaVu Sans, sans-serif" font-size="9" fill="#64748b">T2</text>
<circle cx="160" cy="40" r="14" fill="#dbeafe" stroke="#3b82f6" stroke-width="2"/>
<line x1="160" y1="54" x2="150" y2="76" stroke="#3b82f6" stroke-width="1.5"/>
<line x1="160" y1="54" x2="170" y2="76" stroke="#3b82f6" stroke-width="1.5"/>
<text x="160" y="90" text-anchor="middle" font-family="DejaVu Sans, sans-serif" font-size="9" fill="#64748b">T3</text>
<circle cx="220" cy="40" r="14" fill="#dbeafe" stroke="#3b82f6" stroke-width="2"/>
<line x1="220" y1="54" x2="210" y2="76" stroke="#3b82f6" stroke-width="1.5"/>
<line x1="220" y1="54" x2="230" y2="76" stroke="#3b82f6" stroke-width="1.5"/>
<text x="220" y="90" text-anchor="middle" font-family="DejaVu Sans, sans-serif" font-size="9" fill="#64748b">T4</text>
<rect x="70" y="100" width="180" height="28" rx="8" fill="#dbeafe" stroke="#3b82f6" stroke-width="2"/>
<text x="160" y="120" text-anchor="middle" font-family="DejaVu Sans, sans-serif" font-size="11" fill="#1d4ed8" font-weight="700">Parallel vote</text></g>
  <rect x="368" y="20" width="332" height="248" rx="10" fill="#fff" stroke="#e2e8f0" stroke-width="1.5"/>
  <rect x="368" y="20" width="332" height="44" rx="10" fill="#f0fdf4" stroke="#22c55e" stroke-width="1.5"/>
  <text x="534.0" y="48" text-anchor="middle" font-family="DejaVu Sans, sans-serif" font-size="15" fill="#15803d" font-weight="700">XGBoost (sequential + fast)</text>
  <g transform="translate(392, 76)"><rect x="8" y="28" width="64" height="30" rx="6" fill="#fee2e2" stroke="#ef4444" stroke-width="2"/>
<text x="40" y="48" text-anchor="middle" font-family="DejaVu Sans, sans-serif" font-size="9" fill="#b91c1c" font-weight="600">err +5m</text>
<line x1="72" y1="43" x2="98" y2="43" stroke="#64748b" stroke-width="2"/><polygon points="98,43 92,40 92,46" fill="#64748b"/>
<rect x="98" y="28" width="64" height="30" rx="6" fill="#fef3c7" stroke="#f59e0b" stroke-width="2"/>
<text x="130" y="48" text-anchor="middle" font-family="DejaVu Sans, sans-serif" font-size="9" fill="#b45309" font-weight="600">fix -4m</text>
<line x1="162" y1="43" x2="188" y2="43" stroke="#64748b" stroke-width="2"/><polygon points="188,43 182,40 182,46" fill="#64748b"/>
<rect x="188" y="28" width="64" height="30" rx="6" fill="#dcfce7" stroke="#22c55e" stroke-width="2"/>
<text x="220" y="48" text-anchor="middle" font-family="DejaVu Sans, sans-serif" font-size="9" fill="#15803d" font-weight="600">fix -1m</text>
<rect x="70" y="88" width="160" height="26" rx="8" fill="#ede9fe" stroke="#7c3aed" stroke-width="2"/>
<text x="150" y="106" text-anchor="middle" font-family="DejaVu Sans, sans-serif" font-size="10" fill="#6d28d9" font-weight="700">Sequential fix</text></g>
</svg>