<svg xmlns="http://www.w3.org/2000/svg" viewBox="0 0 700 380" role="img" aria-label="Late fusion architecture">
  <rect width="700" height="380" rx="12" fill="#f8fafc"/>
  <rect x="24" y="20" width="652" height="56" rx="8" fill="#fff" stroke="#3b82f6" stroke-width="2"/>
  <text x="350" y="54" text-anchor="middle" font-family="DejaVu Sans, sans-serif" font-size="20" fill="#3b82f6" font-weight="700">Late fusion architecture</text>
  <rect x="24" y="88" width="652" height="252" rx="8" fill="#fff" stroke="#e2e8f0" stroke-width="1.5"/>
  <g transform="translate(90, 108)"><rect x="20" y="40" width="90" height="50" rx="6" fill="#dbeafe" stroke="#3b82f6" stroke-width="2"/>
<text x="65" y="70" text-anchor="middle" font-family="DejaVu Sans, sans-serif" font-size="11" fill="#1d4ed8" font-weight="700">Text</text>
<rect x="20" y="100" width="90" height="50" rx="6" fill="#fef3c7" stroke="#f59e0b" stroke-width="2"/>
<text x="65" y="130" text-anchor="middle" font-family="DejaVu Sans, sans-serif" font-size="11" fill="#b45309" font-weight="700">Image</text>
<line x1="115" y1="95" x2="180" y2="95" stroke="#64748b" stroke-width="2"/><polygon points="180,95 174,92 174,98" fill="#64748b"/>
<rect x="180" y="60" width="120" height="70" rx="8" fill="#ede9fe" stroke="#7c3aed" stroke-width="2"/>
<text x="240" y="90" text-anchor="middle" font-family="DejaVu Sans, sans-serif" font-size="12" fill="#6d28d9" font-weight="700">Late fusion</text>
<text x="240" y="110" text-anchor="middle" font-family="DejaVu Sans, sans-serif" font-size="10" fill="#64748b">score</text>
<line x1="300" y1="95" x2="360" y2="95" stroke="#64748b" stroke-width="2"/><polygon points="360,95 354,92 354,98" fill="#64748b"/>
<rect x="360" y="75" width="80" height="40" rx="6" fill="#fee2e2" stroke="#ef4444" stroke-width="2"/>
<text x="400" y="100" text-anchor="middle" font-family="DejaVu Sans, sans-serif" font-size="11" fill="#b91c1c" font-weight="700">Fraud?</text></g>
  <text x="350" y="352" text-anchor="middle" font-family="DejaVu Sans, sans-serif" font-size="12" fill="#64748b">Text encoder + image encoder → merge scores</text>
</svg>