<svg xmlns="http://www.w3.org/2000/svg" viewBox="0 0 960 540" role="img" aria-label="Batch normalization pipeline normalize scale and shift">
<defs><marker id="a" markerWidth="4" markerHeight="4" refX="8" refY="4" markerUnits="strokeWidth" viewBox="0 0 8 8" orient="auto"><path d="M0 0L8 4L0 8Z" fill="#64748b"/></marker><style>.t{font:700 24px sans-serif;fill:#fff}.h{font:700 18px sans-serif;fill:#0f172a}.s{font:500 14px sans-serif;fill:#64748b}.f{stroke:#64748b;stroke-width:3;fill:none;marker-end:url(#a)}</style></defs>
<rect width="960" height="540" rx="24" fill="#f8fafc"/><rect x="28" y="24" width="904" height="68" rx="16" fill="#0f172a"/><text x="64" y="67" class="t">BatchNorm stabilizes each layer</text><text x="896" y="66" text-anchor="end" class="s" fill="#cbd5e1">normalize → learnable transform</text>
<rect x="44" y="122" width="872" height="348" rx="20" fill="#fff" stroke="#e2e8f0" stroke-width="2"/><g><rect x="146" y="278" width="180" height="100" rx="16" fill="#fee2e2" stroke="#ef4444" stroke-width="3"/><rect x="390" y="278" width="180" height="100" rx="16" fill="#dbeafe" stroke="#3b82f6" stroke-width="3"/><rect x="634" y="278" width="180" height="100" rx="16" fill="#ede9fe" stroke="#8b5cf6" stroke-width="3"/></g><g text-anchor="middle"><text x="236" y="318" class="h">Raw activations</text><text x="236" y="344" class="s">different scales</text><text x="480" y="318" class="h">Normalize</text><text x="480" y="344" class="s">mean 0 · variance 1</text><text x="724" y="318" class="h">Scale + shift</text><text x="724" y="344" class="s">learn γ and β</text></g><path d="M327.5 328H388.5" class="f"/><path d="M571.5 328H632.5" class="f"/><rect x="208" y="214" width="544" height="34" rx="10" fill="#f1f5f9"/><text x="480" y="237" text-anchor="middle" class="s">The distribution is easier for the next layer to learn from.</text>
</svg>
