<svg xmlns="http://www.w3.org/2000/svg" viewBox="0 0 720 300" role="img" aria-label="Common losses vs MSE vs Cross-entropy">
  <rect width="720" height="300" rx="12" fill="#f8fafc"/>
  <text x="130" y="28" text-anchor="middle" font-family="DejaVu Sans, sans-serif" font-size="15" fill="#dc2626" font-weight="700">Common losses</text>
  <text x="540" y="28" text-anchor="middle" font-family="DejaVu Sans, sans-serif" font-size="15" fill="#059669" font-weight="700">MSE vs Cross-entropy</text>
  <rect x="20" y="40" width="320" height="220" rx="8" fill="#fff" stroke="#e2e8f0" stroke-width="1.5"/>
  <g transform="translate(30, 50)"><line x1="30" y1="120" x2="30" y2="30" stroke="#94a3b8" stroke-width="1.5"/>
<line x1="30" y1="120" x2="380" y2="120" stroke="#94a3b8" stroke-width="1.5"/>
<text x="20" y="25" text-anchor="middle" font-family="DejaVu Sans, sans-serif" font-size="10" fill="#64748b">loss</text>
  <path d="M40,110 C80,100 120,70 180,55 S280,40 360,35" fill="none" stroke="#ef4444" stroke-width="2.5"/>
  <path d="M40,115 C100,108 160,95 220,88 S320,82 360,80" fill="none" stroke="#3b82f6" stroke-width="2.5"/>
<text x="280" y="50" text-anchor="start" font-family="DejaVu Sans, sans-serif" font-size="10" fill="#ef4444" font-weight="600">MSE</text>
<text x="280" y="65" text-anchor="start" font-family="DejaVu Sans, sans-serif" font-size="10" fill="#3b82f6" font-weight="600">Cross-entropy</text></g>
  <rect x="380" y="40" width="320" height="220" rx="8" fill="#fff" stroke="#e2e8f0" stroke-width="1.5"/>
  <g transform="translate(390, 50)"><line x1="30" y1="120" x2="30" y2="30" stroke="#94a3b8" stroke-width="1.5"/>
<line x1="30" y1="120" x2="380" y2="120" stroke="#94a3b8" stroke-width="1.5"/>
<text x="20" y="25" text-anchor="middle" font-family="DejaVu Sans, sans-serif" font-size="10" fill="#64748b">loss</text>
  <path d="M40,110 C80,100 120,70 180,55 S280,40 360,35" fill="none" stroke="#ef4444" stroke-width="2.5"/>
  <path d="M40,115 C100,108 160,95 220,88 S320,82 360,80" fill="none" stroke="#3b82f6" stroke-width="2.5"/>
<text x="280" y="50" text-anchor="start" font-family="DejaVu Sans, sans-serif" font-size="10" fill="#ef4444" font-weight="600">MSE</text>
<text x="280" y="65" text-anchor="start" font-family="DejaVu Sans, sans-serif" font-size="10" fill="#3b82f6" font-weight="600">Cross-entropy</text></g>
  <text x="350" y="284" text-anchor="middle" font-family="DejaVu Sans, sans-serif" font-size="13" fill="#64748b">MSE for regression, cross-entropy for classification</text>
</svg>