<svg xmlns="http://www.w3.org/2000/svg" viewBox="0 0 700 380" role="img" aria-label="Time series ML">
  <rect width="700" height="380" rx="12" fill="#f8fafc"/>
  <rect x="24" y="20" width="652" height="56" rx="8" fill="#fff" stroke="#3b82f6" stroke-width="2"/>
  <text x="350" y="54" text-anchor="middle" font-family="DejaVu Sans, sans-serif" font-size="20" fill="#3b82f6" font-weight="700">Time series ML</text>
  <rect x="24" y="88" width="652" height="252" rx="8" fill="#fff" stroke="#e2e8f0" stroke-width="1.5"/>
  <g transform="translate(90, 108)"><line x1="30" y1="110" x2="30" y2="30" stroke="#94a3b8" stroke-width="1.5"/>
<line x1="30" y1="110" x2="380" y2="110" stroke="#94a3b8" stroke-width="1.5"/>
  <path d="M40,90 C80,85 120,70 160,75 S240,55 280,50 S340,45 360,40" fill="none" stroke="#3b82f6" stroke-width="2.5"/>
  <path d="M40,90 C80,85 120,70 160,75 S240,55 280,50 S340,45 360,40 L360,110 L40,110 Z" fill="rgba(59,130,246,0.1)"/>
<text x="200" y="125" text-anchor="middle" font-family="DejaVu Sans, sans-serif" font-size="10" fill="#64748b">Historical demand</text></g>
  <text x="350" y="352" text-anchor="middle" font-family="DejaVu Sans, sans-serif" font-size="12" fill="#64748b">Train on past only — avoid data leakage</text>
</svg>