<svg xmlns="http://www.w3.org/2000/svg" viewBox="0 0 700 380" role="img" aria-label="Transformer block">
  <rect width="700" height="380" rx="12" fill="#f8fafc"/>
  <rect x="24" y="20" width="652" height="56" rx="8" fill="#fff" stroke="#7c3aed" stroke-width="2"/>
  <text x="350" y="54" text-anchor="middle" font-family="DejaVu Sans, sans-serif" font-size="20" fill="#7c3aed" font-weight="700">Transformer block</text>
  <rect x="24" y="88" width="652" height="252" rx="8" fill="#fff" stroke="#e2e8f0" stroke-width="1.5"/>
  <g transform="translate(90, 108)"><rect x="0" y="55" width="92" height="48" rx="8" fill="#3b82f622" stroke="#3b82f6" stroke-width="2"/>
<text x="46.0" y="82.85" text-anchor="middle" font-family="DejaVu Sans, sans-serif" font-size="11" fill="#3b82f6" font-weight="600">Multi-head</text>
<line x1="92" y1="79.0" x2="112" y2="79.0" stroke="#64748b" stroke-width="1.5"/><polygon points="112,79.0 106,76.0 106,82.0" fill="#64748b"/>
<rect x="120" y="55" width="85" height="48" rx="8" fill="#8b5cf622" stroke="#8b5cf6" stroke-width="2"/>
<text x="162.5" y="82.85" text-anchor="middle" font-family="DejaVu Sans, sans-serif" font-size="11" fill="#8b5cf6" font-weight="600">Attention</text>
<line x1="205" y1="79.0" x2="225" y2="79.0" stroke="#64748b" stroke-width="1.5"/><polygon points="225,79.0 219,76.0 219,82.0" fill="#64748b"/>
<rect x="233" y="55" width="72" height="48" rx="8" fill="#22c55e22" stroke="#22c55e" stroke-width="2"/>
<text x="269.0" y="82.85" text-anchor="middle" font-family="DejaVu Sans, sans-serif" font-size="11" fill="#22c55e" font-weight="600">FFN</text>
<line x1="305" y1="79.0" x2="325" y2="79.0" stroke="#64748b" stroke-width="1.5"/><polygon points="325,79.0 319,76.0 319,82.0" fill="#64748b"/>
<rect x="333" y="55" width="78" height="48" rx="8" fill="#f59e0b22" stroke="#f59e0b" stroke-width="2"/>
<text x="372.0" y="82.85" text-anchor="middle" font-family="DejaVu Sans, sans-serif" font-size="11" fill="#f59e0b" font-weight="600">Add+Norm</text></g>
  <text x="350" y="352" text-anchor="middle" font-family="DejaVu Sans, sans-serif" font-size="12" fill="#64748b">Multi-head attention → FFN → residual + norm</text>
</svg>