<svg xmlns="http://www.w3.org/2000/svg" viewBox="0 0 700 380" role="img" aria-label="Text and image signals pass through separate encoders and scores before late fusion">
  <defs>
    <filter id="s"><feDropShadow dx="0" dy="6" stdDeviation="7" flood-opacity=".1"/></filter>
    <marker id="a" markerWidth="8" markerHeight="8" refX="7" refY="4" orient="auto"><path d="M0 0L8 4L0 8Z" fill="#475569"/></marker>
  </defs>
  <rect width="700" height="380" rx="20" fill="#f8fafc"/>
  <rect x="24" y="20" width="652" height="56" rx="14" fill="#fff" stroke="#3b82f6" stroke-width="2" filter="url(#s)"/>
  <text x="350" y="55" text-anchor="middle" font-family="Arial,sans-serif" font-size="22" fill="#1d4ed8" font-weight="700">Late fusion architecture</text>
  <rect x="52" y="96" width="596" height="210" rx="18" fill="#fff" stroke="#dbeafe" stroke-width="2" filter="url(#s)"/>
  <rect x="70" y="132" width="106" height="54" rx="10" fill="#eff6ff" stroke="#3b82f6" stroke-width="2"/>
  <text x="123" y="165" text-anchor="middle" font-family="Arial,sans-serif" font-size="13" fill="#1d4ed8" font-weight="700">Text</text>
  <rect x="70" y="224" width="106" height="54" rx="10" fill="#fffbeb" stroke="#f59e0b" stroke-width="2"/>
  <text x="123" y="257" text-anchor="middle" font-family="Arial,sans-serif" font-size="13" fill="#b45309" font-weight="700">Image</text>
  <rect x="210" y="132" width="130" height="54" rx="10" fill="#eef2ff" stroke="#6366f1" stroke-width="2"/>
  <text x="275" y="165" text-anchor="middle" font-family="Arial,sans-serif" font-size="13" fill="#4338ca" font-weight="700">Text encoder</text>
  <rect x="210" y="224" width="130" height="54" rx="10" fill="#fff7ed" stroke="#f59e0b" stroke-width="2"/>
  <text x="275" y="257" text-anchor="middle" font-family="Arial,sans-serif" font-size="13" fill="#b45309" font-weight="700">Image encoder</text>
  <path d="M176 159H210" fill="none" stroke="#475569" stroke-width="2" marker-end="url(#a)"/>
  <path d="M176 251H210" fill="none" stroke="#475569" stroke-width="2" marker-end="url(#a)"/>
  <rect x="375" y="132" width="120" height="54" rx="10" fill="#f5f3ff" stroke="#8b5cf6" stroke-width="2"/>
  <text x="435" y="165" text-anchor="middle" font-family="Arial,sans-serif" font-size="13" fill="#6d28d9" font-weight="700">Text score</text>
  <rect x="375" y="224" width="120" height="54" rx="10" fill="#fef3c7" stroke="#f59e0b" stroke-width="2"/>
  <text x="435" y="257" text-anchor="middle" font-family="Arial,sans-serif" font-size="13" fill="#b45309" font-weight="700">Image score</text>
  <path d="M340 159H375" fill="none" stroke="#475569" stroke-width="2" marker-end="url(#a)"/>
  <path d="M340 251H375" fill="none" stroke="#475569" stroke-width="2" marker-end="url(#a)"/>
  <rect x="530" y="164" width="112" height="80" rx="12" fill="#fef2f2" stroke="#ef4444" stroke-width="2"/>
  <text x="586" y="195" text-anchor="middle" font-family="Arial,sans-serif" font-size="13" fill="#b91c1c" font-weight="700">Late fusion</text>
  <text x="586" y="217" text-anchor="middle" font-family="Arial,sans-serif" font-size="11" fill="#64748b">fraud score</text>
  <path d="M495 159H512V204" fill="none" stroke="#475569" stroke-width="2"/>
  <path d="M495 251H512V204" fill="none" stroke="#475569" stroke-width="2"/>
  <circle cx="512" cy="204" r="4" fill="#475569"/>
  <path d="M512 204H530" fill="none" stroke="#475569" stroke-width="2" marker-end="url(#a)"/>
  <text x="350" y="348" text-anchor="middle" font-family="Arial,sans-serif" font-size="13" fill="#475569">Each modality earns a score before the scores are combined</text>
</svg>
