<svg xmlns="http://www.w3.org/2000/svg" viewBox="0 0 700 380" role="img" aria-label="Word2Vec: train on context">
  <rect width="700" height="380" rx="12" fill="#f8fafc"/>
  <rect x="24" y="20" width="652" height="56" rx="8" fill="#fff" stroke="#3b82f6" stroke-width="2"/>
  <text x="350" y="54" text-anchor="middle" font-family="DejaVu Sans, sans-serif" font-size="20" fill="#3b82f6" font-weight="700">Word2Vec: train on context</text>
  <rect x="24" y="88" width="652" height="252" rx="8" fill="#fff" stroke="#e2e8f0" stroke-width="1.5"/>
  <g transform="translate(90, 108)"><rect x="20" y="30" width="80" height="80" rx="6" fill="#fee2e2" stroke="#ef4444" stroke-width="2"/>
<text x="60" y="75" text-anchor="middle" font-family="DejaVu Sans, sans-serif" font-size="10" fill="#b91c1c" font-weight="600">one-hot</text>
<text x="60" y="55" text-anchor="middle" font-family="DejaVu Sans, sans-serif" font-size="10" fill="#64748b">sparse</text>
<line x1="105" y1="70" x2="155" y2="70" stroke="#64748b" stroke-width="2"/><polygon points="155,70 149,67 149,73" fill="#64748b"/>
<rect x="155" y="30" width="220" height="80" rx="6" fill="#ede9fe" stroke="#7c3aed" stroke-width="2"/>
<circle cx="190" cy="60" r="6" fill="#3b82f6"/>
<circle cx="230" cy="50" r="6" fill="#8b5cf6"/>
<circle cx="270" cy="70" r="6" fill="#ec4899"/>
<circle cx="310" cy="55" r="6" fill="#f59e0b"/>
<circle cx="350" cy="65" r="6" fill="#22c55e"/>
<text x="265" y="100" text-anchor="middle" font-family="DejaVu Sans, sans-serif" font-size="10" fill="#6d28d9" font-weight="600">Dense embedding space</text></g>
  <text x="350" y="352" text-anchor="middle" font-family="DejaVu Sans, sans-serif" font-size="12" fill="#64748b">king - man + woman ≈ queen</text>
</svg>