<svg xmlns="http://www.w3.org/2000/svg" viewBox="0 0 700 380" role="img" aria-label="Decision Tree: animal classification">
  <rect width="700" height="380" rx="12" fill="#f8fafc"/>
  <rect x="24" y="20" width="652" height="56" rx="8" fill="#fff" stroke="#3b82f6" stroke-width="2"/>
  <text x="350" y="54" text-anchor="middle" font-family="DejaVu Sans, sans-serif" font-size="18" fill="#3b82f6" font-weight="700">Decision Tree: animal classification</text>
  <rect x="24" y="88" width="652" height="252" rx="8" fill="#fff" stroke="#e2e8f0" stroke-width="1.5"/>
  <g transform="translate(90, 108)"><rect x="196.0" y="0" width="108" height="32" rx="6" fill="#dbeafe" stroke="#3b82f6" stroke-width="2"/>
<text x="250.0" y="19.85" text-anchor="middle" font-family="DejaVu Sans, sans-serif" font-size="11" fill="#1d4ed8" font-weight="600">Feathers?</text>
<line x1="250" y1="32" x2="110" y2="66" stroke="#94a3b8" stroke-width="1.5"/>
<line x1="250" y1="32" x2="390" y2="66" stroke="#94a3b8" stroke-width="1.5"/>
<rect x="56" y="66" width="108" height="32" rx="6" fill="#dcfce7" stroke="#22c55e" stroke-width="2"/>
<text x="110.0" y="85.85" text-anchor="middle" font-family="DejaVu Sans, sans-serif" font-size="11" fill="#15803d" font-weight="600">Bird</text>
<rect x="334" y="66" width="108" height="32" rx="6" fill="#fef3c7" stroke="#f59e0b" stroke-width="2"/>
<text x="388.0" y="85.85" text-anchor="middle" font-family="DejaVu Sans, sans-serif" font-size="11" fill="#b45309" font-weight="600">Walks?</text>
<line x1="390" y1="98" x2="330" y2="132" stroke="#94a3b8" stroke-width="1.5"/>
<line x1="390" y1="98" x2="450" y2="132" stroke="#94a3b8" stroke-width="1.5"/>
<rect x="276" y="132" width="108" height="32" rx="6" fill="#ede9fe" stroke="#8b5cf6" stroke-width="2"/>
<text x="330.0" y="151.85" text-anchor="middle" font-family="DejaVu Sans, sans-serif" font-size="11" fill="#6d28d9" font-weight="600">Dog</text>
<rect x="396" y="132" width="108" height="32" rx="6" fill="#fce7f3" stroke="#ec4899" stroke-width="2"/>
<text x="450.0" y="151.85" text-anchor="middle" font-family="DejaVu Sans, sans-serif" font-size="11" fill="#be185d" font-weight="600">Cat</text></g>
  <text x="350" y="352" text-anchor="middle" font-family="DejaVu Sans, sans-serif" font-size="12" fill="#64748b">Each split asks the best Yes/No question</text>
</svg>