<svg xmlns="http://www.w3.org/2000/svg" viewBox="0 0 700 380" role="img" aria-label="Training loop">
  <rect width="700" height="380" rx="12" fill="#f8fafc"/>
  <rect x="24" y="20" width="652" height="56" rx="8" fill="#fff" stroke="#7c3aed" stroke-width="2"/>
  <text x="350" y="54" text-anchor="middle" font-family="DejaVu Sans, sans-serif" font-size="20" fill="#7c3aed" font-weight="700">Training loop</text>
  <rect x="24" y="88" width="652" height="252" rx="8" fill="#fff" stroke="#e2e8f0" stroke-width="1.5"/>
  <g transform="translate(90, 108)"><rect x="16" y="32" width="96" height="46" rx="8" fill="#3b82f622" stroke="#3b82f6" stroke-width="2"/>
<text x="64.0" y="59.0" text-anchor="middle" font-family="DejaVu Sans, sans-serif" font-size="11" fill="#3b82f6" font-weight="600">Forward</text>
<line x1="112" y1="55.0" x2="128" y2="55.0" stroke="#64748b" stroke-width="1.5"/><polygon points="128,55.0 122,52.0 122,58.0" fill="#64748b"/>
<rect x="136" y="32" width="96" height="46" rx="8" fill="#ef444422" stroke="#ef4444" stroke-width="2"/>
<text x="184.0" y="59.0" text-anchor="middle" font-family="DejaVu Sans, sans-serif" font-size="11" fill="#ef4444" font-weight="600">Loss</text>
<line x1="232" y1="55.0" x2="248" y2="55.0" stroke="#64748b" stroke-width="1.5"/><polygon points="248,55.0 242,52.0 242,58.0" fill="#64748b"/>
<rect x="256" y="32" width="96" height="46" rx="8" fill="#f59e0b22" stroke="#f59e0b" stroke-width="2"/>
<text x="304.0" y="59.0" text-anchor="middle" font-family="DejaVu Sans, sans-serif" font-size="11" fill="#f59e0b" font-weight="600">Backward</text>
<line x1="352" y1="55.0" x2="368" y2="55.0" stroke="#64748b" stroke-width="1.5"/><polygon points="368,55.0 362,52.0 362,58.0" fill="#64748b"/>
<rect x="376" y="32" width="96" height="46" rx="8" fill="#22c55e22" stroke="#22c55e" stroke-width="2"/>
<text x="424.0" y="59.0" text-anchor="middle" font-family="DejaVu Sans, sans-serif" font-size="11" fill="#22c55e" font-weight="600">Update</text>
<path d="M 424.0 78 L 424.0 120 L 64.0 120 L 64.0 78" fill="none" stroke="#64748b" stroke-width="1.5"/>
<polygon points="64.0,78 59.0,86 69.0,86" fill="#64748b"/>
<text x="244.0" y="138" text-anchor="middle" font-family="DejaVu Sans, sans-serif" font-size="11" fill="#64748b" font-weight="600">repeat</text></g>
  <text x="350" y="352" text-anchor="middle" font-family="DejaVu Sans, sans-serif" font-size="12" fill="#64748b">Compute loss, backprop gradients, update weights</text>
</svg>