<svg xmlns="http://www.w3.org/2000/svg" viewBox="0 0 960 540" role="img" aria-label="SGD and Adam descending a loss landscape">
<defs><marker id="a" viewBox="0 0 8 8" markerWidth="7" markerHeight="7" refX="6" refY="4" orient="auto"><path d="M0 1L6 4L0 7" fill="none" stroke="#64748b" stroke-width="1.5" stroke-linecap="round" stroke-linejoin="round"/></marker><style>.t{font:700 24px sans-serif;fill:#fff}.h{font:700 18px sans-serif;fill:#0f172a}.s{font:500 14px sans-serif;fill:#64748b}.f{stroke:#64748b;stroke-width:3;fill:none;marker-end:url(#a)}</style></defs>
<rect width="960" height="540" rx="24" fill="#f8fafc"/><rect x="28" y="24" width="904" height="68" rx="16" fill="#0f172a"/><text x="64" y="67" class="t">Optimizers navigate the loss landscape</text><text x="896" y="66" text-anchor="end" class="s" fill="#cbd5e1">same model · different update strategy</text>
<rect x="44" y="122" width="872" height="348" rx="20" fill="#fff" stroke="#e2e8f0" stroke-width="2"/><path d="M116 390 C180 300 220 210 318 228 S450 414 550 330 S680 250 830 265" fill="none" stroke="#cbd5e1" stroke-width="6"/><path d="M174 220L240 260L304 294L382 330L448 347" fill="none" stroke="#3b82f6" stroke-width="4" marker-end="url(#a)"/><path d="M174 220L290 250L390 306L500 342L590 355" fill="none" stroke="#22c55e" stroke-width="4" marker-end="url(#a)"/><circle cx="170" cy="220" r="5" fill="#64748b"/><circle cx="458" cy="350" r="10" fill="#3b82f6"/><circle cx="600" cy="356" r="10" fill="#22c55e"/>
<g><rect x="65" y="138" width="240" height="62" rx="16" fill="#dbeafe"/><text x="185" y="177" text-anchor="middle" class="h">SGD · steady steps</text><rect x="650" y="138" width="250" height="62" rx="16" fill="#dcfce7"/><text x="775" y="177" text-anchor="middle" class="h">Adam · adaptive steps</text></g><text x="480" y="430" text-anchor="middle" class="s">Both seek a low-loss region; their step sizes and momentum differ.</text>
</svg>
