<svg xmlns="http://www.w3.org/2000/svg" viewBox="0 0 700 380" role="img" aria-label="Network layers">
  <rect width="700" height="380" rx="12" fill="#f8fafc"/>
  <rect x="24" y="20" width="652" height="56" rx="8" fill="#fff" stroke="#3b82f6" stroke-width="2"/>
  <text x="350" y="54" text-anchor="middle" font-family="DejaVu Sans, sans-serif" font-size="20" fill="#3b82f6" font-weight="700">Network layers</text>
  <rect x="24" y="88" width="652" height="252" rx="8" fill="#fff" stroke="#e2e8f0" stroke-width="1.5"/>
  <g transform="translate(90, 108)"><circle cx="60" cy="55" r="18" fill="#dbeafe" stroke="#3b82f6" stroke-width="2"/>
<text x="60" y="60" text-anchor="middle" font-family="DejaVu Sans, sans-serif" font-size="11" fill="#1d4ed8" font-weight="600">x1</text>
<circle cx="60" cy="100" r="18" fill="#dbeafe" stroke="#3b82f6" stroke-width="2"/>
<text x="60" y="105" text-anchor="middle" font-family="DejaVu Sans, sans-serif" font-size="11" fill="#1d4ed8" font-weight="600">x2</text>
<circle cx="60" cy="145" r="18" fill="#dbeafe" stroke="#3b82f6" stroke-width="2"/>
<text x="60" y="150" text-anchor="middle" font-family="DejaVu Sans, sans-serif" font-size="11" fill="#1d4ed8" font-weight="600">x3</text>
<circle cx="230" cy="75" r="18" fill="#dbeafe" stroke="#3b82f6" stroke-width="2"/>
<text x="230" y="80" text-anchor="middle" font-family="DejaVu Sans, sans-serif" font-size="11" fill="#1d4ed8" font-weight="600">h1</text>
<circle cx="230" cy="125" r="18" fill="#dbeafe" stroke="#3b82f6" stroke-width="2"/>
<text x="230" y="130" text-anchor="middle" font-family="DejaVu Sans, sans-serif" font-size="11" fill="#1d4ed8" font-weight="600">h2</text>
<circle cx="400" cy="100" r="18" fill="#dbeafe" stroke="#3b82f6" stroke-width="2"/>
<text x="400" y="105" text-anchor="middle" font-family="DejaVu Sans, sans-serif" font-size="11" fill="#1d4ed8" font-weight="600">y</text>
<line x1="78" y1="55" x2="212" y2="75" stroke="#94a3b8" stroke-width="1.25"/>
<line x1="78" y1="55" x2="212" y2="125" stroke="#94a3b8" stroke-width="1.25"/>
<line x1="78" y1="100" x2="212" y2="75" stroke="#94a3b8" stroke-width="1.25"/>
<line x1="78" y1="100" x2="212" y2="125" stroke="#94a3b8" stroke-width="1.25"/>
<line x1="78" y1="145" x2="212" y2="75" stroke="#94a3b8" stroke-width="1.25"/>
<line x1="78" y1="145" x2="212" y2="125" stroke="#94a3b8" stroke-width="1.25"/>
<line x1="248" y1="75" x2="382" y2="100" stroke="#94a3b8" stroke-width="1.25"/>
<line x1="248" y1="125" x2="382" y2="100" stroke="#94a3b8" stroke-width="1.25"/>
<line x1="60" y1="168" x2="60" y2="12" stroke="#e2e8f0" stroke-width="1" stroke-dasharray="4 4"/>
<line x1="230" y1="168" x2="230" y2="12" stroke="#e2e8f0" stroke-width="1" stroke-dasharray="4 4"/>
<line x1="400" y1="168" x2="400" y2="12" stroke="#e2e8f0" stroke-width="1" stroke-dasharray="4 4"/>
<text x="60" y="182" text-anchor="middle" font-family="DejaVu Sans, sans-serif" font-size="11" fill="#64748b" font-weight="600">Input</text>
<text x="230" y="182" text-anchor="middle" font-family="DejaVu Sans, sans-serif" font-size="11" fill="#64748b" font-weight="600">Hidden</text>
<text x="400" y="182" text-anchor="middle" font-family="DejaVu Sans, sans-serif" font-size="11" fill="#64748b" font-weight="600">Output</text></g>
  <text x="350" y="352" text-anchor="middle" font-family="DejaVu Sans, sans-serif" font-size="12" fill="#64748b">Input layer → hidden layer → output layer</text>
</svg>