<svg xmlns="http://www.w3.org/2000/svg" viewBox="0 0 700 380" role="img" aria-label="Chat loop">
  <rect width="700" height="380" rx="12" fill="#f8fafc"/>
  <rect x="24" y="20" width="652" height="56" rx="8" fill="#fff" stroke="#7c3aed" stroke-width="2"/>
  <text x="350" y="54" text-anchor="middle" font-family="DejaVu Sans, sans-serif" font-size="20" fill="#7c3aed" font-weight="700">Chat loop</text>
  <rect x="24" y="88" width="652" height="252" rx="8" fill="#fff" stroke="#e2e8f0" stroke-width="1.5"/>
  <g transform="translate(90, 108)"><rect x="0" y="30" width="92" height="48" rx="8" fill="#3b82f622" stroke="#3b82f6" stroke-width="2"/>
<text x="46.0" y="57.85" text-anchor="middle" font-family="DejaVu Sans, sans-serif" font-size="11" fill="#3b82f6" font-weight="600">User input</text>
<line x1="92" y1="54.0" x2="112" y2="54.0" stroke="#64748b" stroke-width="1.5"/><polygon points="112,54.0 106,51.0 106,57.0" fill="#64748b"/>
<rect x="120" y="30" width="119" height="48" rx="8" fill="#8b5cf622" stroke="#8b5cf6" stroke-width="2"/>
<text x="179.5" y="57.5" text-anchor="middle" font-family="DejaVu Sans, sans-serif" font-size="10" fill="#8b5cf6" font-weight="600">Add to history</text>
<line x1="239" y1="54.0" x2="259" y2="54.0" stroke="#64748b" stroke-width="1.5"/><polygon points="259,54.0 253,51.0 253,57.0" fill="#64748b"/>
<rect x="267" y="30" width="78" height="48" rx="8" fill="#f59e0b22" stroke="#f59e0b" stroke-width="2"/>
<text x="306.0" y="57.85" text-anchor="middle" font-family="DejaVu Sans, sans-serif" font-size="11" fill="#f59e0b" font-weight="600">API call</text>
<line x1="345" y1="54.0" x2="365" y2="54.0" stroke="#64748b" stroke-width="1.5"/><polygon points="365,54.0 359,51.0 359,57.0" fill="#64748b"/>
<rect x="373" y="30" width="72" height="48" rx="8" fill="#22c55e22" stroke="#22c55e" stroke-width="2"/>
<text x="409.0" y="57.85" text-anchor="middle" font-family="DejaVu Sans, sans-serif" font-size="11" fill="#22c55e" font-weight="600">Reply</text></g>
</svg>