<svg xmlns="http://www.w3.org/2000/svg" viewBox="0 0 700 320" role="img" aria-label="Fraud signals">
  <rect width="700" height="320" rx="12" fill="#f8fafc"/>
  <rect x="24" y="20" width="652" height="52" rx="8" fill="#fff" stroke="#7c3aed" stroke-width="2"/>
  <text x="350" y="52" text-anchor="middle" font-family="DejaVu Sans, sans-serif" font-size="20" fill="#7c3aed" font-weight="700">Fraud signals</text>
  <rect x="24" y="84" width="652" height="212" rx="8" fill="#fff" stroke="#e2e8f0" stroke-width="1.5"/>
  <g transform="translate(40, 100)"><rect x="0" y="30" width="110" height="44" rx="8" fill="#ef444422" stroke="#ef4444" stroke-width="2"/>
<text x="55.0" y="58" text-anchor="middle" font-family="DejaVu Sans, sans-serif" font-size="11" fill="#ef4444" font-weight="600">Suspicious text</text>
<line x1="110" y1="52" x2="138" y2="52" stroke="#64748b" stroke-width="1.5"/><polygon points="138,52 132,49 132,55" fill="#64748b"/>
<rect x="146" y="30" width="110" height="44" rx="8" fill="#f59e0b22" stroke="#f59e0b" stroke-width="2"/>
<text x="201.0" y="58" text-anchor="middle" font-family="DejaVu Sans, sans-serif" font-size="11" fill="#f59e0b" font-weight="600">Image mismatch</text>
<line x1="256" y1="52" x2="284" y2="52" stroke="#64748b" stroke-width="1.5"/><polygon points="284,52 278,49 278,55" fill="#64748b"/>
<rect x="292" y="30" width="110" height="44" rx="8" fill="#dc262622" stroke="#dc2626" stroke-width="2"/>
<text x="347.0" y="58" text-anchor="middle" font-family="DejaVu Sans, sans-serif" font-size="11" fill="#dc2626" font-weight="600">High score</text></g>
  <text x="350" y="296" text-anchor="middle" font-family="DejaVu Sans, sans-serif" font-size="13" fill="#64748b">Cross-modal inconsistency detection</text>
</svg>