<svg xmlns="http://www.w3.org/2000/svg" viewBox="0 0 960 540" role="img" aria-label="Overfitting versus regularization and generalization">
<defs><marker id="a" markerWidth="4" markerHeight="4" refX="8" refY="4" markerUnits="strokeWidth" viewBox="0 0 8 8" orient="auto"><path d="M0 0L8 4L0 8Z" fill="#64748b"/></marker><style>.t{font:700 24px sans-serif;fill:#fff}.h{font:700 18px sans-serif;fill:#0f172a}.s{font:500 14px sans-serif;fill:#64748b}.f{stroke:#64748b;stroke-width:3;fill:none;marker-end:url(#a)}</style></defs>
<rect width="960" height="540" rx="24" fill="#f8fafc"/><rect x="28" y="24" width="904" height="68" rx="16" fill="#0f172a"/><text x="64" y="67" class="t">Regularization protects generalization</text><text x="896" y="66" text-anchor="end" class="s" fill="#cbd5e1">fit signal, ignore noise</text>
<rect x="44" y="122" width="872" height="348" rx="20" fill="#fff" stroke="#e2e8f0" stroke-width="2"/><rect x="84" y="177" width="350" height="238" rx="18" fill="#fff7ed" stroke="#f97316" stroke-width="3"/><rect x="526" y="177" width="350" height="238" rx="18" fill="#f0fdf4" stroke="#22c55e" stroke-width="3"/>
<g text-anchor="middle"><text x="259" y="216" class="h">Overfitting</text><text x="701" y="216" class="h">Better generalization</text></g><g transform="translate(112 241)"><path d="M0 122C70 118 85 42 145 70S220 126 300 20" fill="none" stroke="#ef4444" stroke-width="4"/><circle cx="45" cy="92" r="6" fill="#3b82f6"/><circle cx="120" cy="60" r="6" fill="#3b82f6"/><circle cx="205" cy="96" r="6" fill="#3b82f6"/><circle cx="270" cy="38" r="6" fill="#3b82f6"/></g><g transform="translate(554 241)"><path d="M0 94C70 80 150 58 300 34" fill="none" stroke="#22c55e" stroke-width="4"/><circle cx="45" cy="92" r="6" fill="#3b82f6"/><circle cx="120" cy="60" r="6" fill="#3b82f6"/><circle cx="205" cy="96" r="6" fill="#3b82f6"/><circle cx="270" cy="38" r="6" fill="#3b82f6"/></g>
<path d="M435.5 296H524.5" class="f"/><text x="480" y="279" text-anchor="middle" class="s">regularize</text><text x="259" y="397" text-anchor="middle" class="s">memorizes noise</text><text x="701" y="397" text-anchor="middle" class="s">captures the trend</text>
</svg>
