<svg xmlns="http://www.w3.org/2000/svg" viewBox="0 0 700 380" role="img" aria-label="Evolution path">
  <rect width="700" height="380" rx="12" fill="#f8fafc"/>
  <rect x="24" y="20" width="652" height="56" rx="8" fill="#fff" stroke="#3b82f6" stroke-width="2"/>
  <text x="350" y="54" text-anchor="middle" font-family="DejaVu Sans, sans-serif" font-size="20" fill="#3b82f6" font-weight="700">Evolution path</text>
  <rect x="24" y="88" width="652" height="252" rx="8" fill="#fff" stroke="#e2e8f0" stroke-width="1.5"/>
  <g transform="translate(90, 108)"><rect x="0" y="55" width="92" height="48" rx="8" fill="#3b82f622" stroke="#3b82f6" stroke-width="2"/>
<text x="46.0" y="82.85" text-anchor="middle" font-family="DejaVu Sans, sans-serif" font-size="11" fill="#3b82f6" font-weight="600">Completion</text>
<line x1="92" y1="79.0" x2="112" y2="79.0" stroke="#64748b" stroke-width="1.5"/><polygon points="112,79.0 106,76.0 106,82.0" fill="#64748b"/>
<rect x="120" y="55" width="72" height="48" rx="8" fill="#8b5cf622" stroke="#8b5cf6" stroke-width="2"/>
<text x="156.0" y="82.85" text-anchor="middle" font-family="DejaVu Sans, sans-serif" font-size="11" fill="#8b5cf6" font-weight="600">RAG</text>
<line x1="192" y1="79.0" x2="212" y2="79.0" stroke="#64748b" stroke-width="1.5"/><polygon points="212,79.0 206,76.0 206,82.0" fill="#64748b"/>
<rect x="220" y="55" width="72" height="48" rx="8" fill="#22c55e22" stroke="#22c55e" stroke-width="2"/>
<text x="256.0" y="82.85" text-anchor="middle" font-family="DejaVu Sans, sans-serif" font-size="11" fill="#22c55e" font-weight="600">Agent</text></g>
  <text x="350" y="352" text-anchor="middle" font-family="DejaVu Sans, sans-serif" font-size="12" fill="#64748b">Completion API → RAG → Agents with tools</text>
</svg>