<svg xmlns="http://www.w3.org/2000/svg" viewBox="0 0 720 348" role="img" aria-label="TF-IDF + ML vs Embeddings+NN">
  <rect width="720" height="348" rx="12" fill="#f8fafc"/>
  <rect x="20" y="20" width="332" height="248" rx="10" fill="#fff" stroke="#e2e8f0" stroke-width="1.5"/>
  <rect x="20" y="20" width="332" height="44" rx="10" fill="#fff7ed" stroke="#f97316" stroke-width="1.5"/>
  <text x="186.0" y="48" text-anchor="middle" font-family="DejaVu Sans, sans-serif" font-size="15" fill="#c2410c" font-weight="700">TF-IDF + ML</text>
  <g transform="translate(44, 76)"><text x="4" y="16" text-anchor="start" font-family="DejaVu Sans, sans-serif" font-size="9" fill="#64748b">the cat sat</text>
<line x1="72" y1="28" x2="100" y2="28" stroke="#64748b" stroke-width="2"/><polygon points="100,28 94,25 94,31" fill="#64748b"/>
<rect x="100" y="8" width="150" height="42" rx="4" fill="#fff" stroke="#e2e8f0" stroke-width="1.5"/>
<text x="110" y="20" text-anchor="start" font-family="DejaVu Sans, sans-serif" font-size="8" fill="#475569">cat</text>
<rect x="145" y="14" width="26" height="8" rx="2" fill="#dbeafe" stroke="#3b82f6" stroke-width="1"/>
<text x="110" y="32" text-anchor="start" font-family="DejaVu Sans, sans-serif" font-size="8" fill="#475569">sat</text>
<rect x="177" y="26" width="26" height="8" rx="2" fill="#dbeafe" stroke="#3b82f6" stroke-width="1"/>
<text x="110" y="44" text-anchor="start" font-family="DejaVu Sans, sans-serif" font-size="8" fill="#475569">mat</text>
<rect x="209" y="38" width="26" height="8" rx="2" fill="#dbeafe" stroke="#3b82f6" stroke-width="1"/>
<text x="110" y="58" text-anchor="start" font-family="DejaVu Sans, sans-serif" font-size="8" fill="#1d4ed8" font-weight="600">Sparse TF-IDF</text></g>
  <rect x="368" y="20" width="332" height="248" rx="10" fill="#fff" stroke="#e2e8f0" stroke-width="1.5"/>
  <rect x="368" y="20" width="332" height="44" rx="10" fill="#f0fdf4" stroke="#22c55e" stroke-width="1.5"/>
  <text x="534.0" y="48" text-anchor="middle" font-family="DejaVu Sans, sans-serif" font-size="15" fill="#15803d" font-weight="700">Embeddings+NN</text>
  <g transform="translate(392, 76)"><rect x="8" y="22" width="56" height="56" rx="6" fill="#fee2e2" stroke="#ef4444" stroke-width="2"/>
<text x="36" y="58" text-anchor="middle" font-family="DejaVu Sans, sans-serif" font-size="8" fill="#b91c1c" font-weight="600">one-hot</text>
<line x1="68" y1="50" x2="88" y2="50" stroke="#64748b" stroke-width="2"/><polygon points="88,50 82,47 82,53" fill="#64748b"/>
<rect x="88" y="22" width="160" height="56" rx="6" fill="#ede9fe" stroke="#7c3aed" stroke-width="2"/>
<circle cx="110" cy="42" r="5" fill="#3b82f6"/>
<circle cx="140" cy="36" r="5" fill="#8b5cf6"/>
<circle cx="170" cy="48" r="5" fill="#ec4899"/>
<circle cx="200" cy="38" r="5" fill="#f59e0b"/>
<circle cx="230" cy="44" r="5" fill="#22c55e"/>
<text x="168" y="88" text-anchor="middle" font-family="DejaVu Sans, sans-serif" font-size="8" fill="#6d28d9" font-weight="600">Dense embedding</text></g>
  <text x="360.0" y="330" text-anchor="middle" font-family="DejaVu Sans, sans-serif" font-size="11" fill="#64748b">Choose stack based on data size and task</text>
</svg>