<svg xmlns="http://www.w3.org/2000/svg" viewBox="0 0 700 380" role="img" aria-label="RNN unrolling through time">
  <rect width="700" height="380" rx="12" fill="#f8fafc"/>
  <rect x="24" y="20" width="652" height="56" rx="8" fill="#fff" stroke="#3b82f6" stroke-width="2"/>
  <text x="350" y="54" text-anchor="middle" font-family="DejaVu Sans, sans-serif" font-size="20" fill="#3b82f6" font-weight="700">RNN unrolling through time</text>
  <rect x="24" y="88" width="652" height="252" rx="8" fill="#fff" stroke="#e2e8f0" stroke-width="1.5"/>
  <g transform="translate(90, 108)"><rect x="40" y="50" width="60" height="40" rx="6" fill="#dbeafe" stroke="#3b82f6" stroke-width="2"/>
<text x="70" y="76" text-anchor="middle" font-family="DejaVu Sans, sans-serif" font-size="11" fill="#1d4ed8" font-weight="700">h_0</text>
<line x1="100" y1="70" x2="110" y2="70" stroke="#64748b" stroke-width="2"/><polygon points="110,70 104,67 104,73" fill="#64748b"/>
<rect x="130" y="50" width="60" height="40" rx="6" fill="#dbeafe" stroke="#3b82f6" stroke-width="2"/>
<text x="160" y="76" text-anchor="middle" font-family="DejaVu Sans, sans-serif" font-size="11" fill="#1d4ed8" font-weight="700">h_1</text>
<line x1="190" y1="70" x2="200" y2="70" stroke="#64748b" stroke-width="2"/><polygon points="200,70 194,67 194,73" fill="#64748b"/>
<rect x="220" y="50" width="60" height="40" rx="6" fill="#dbeafe" stroke="#3b82f6" stroke-width="2"/>
<text x="250" y="76" text-anchor="middle" font-family="DejaVu Sans, sans-serif" font-size="11" fill="#1d4ed8" font-weight="700">h_2</text>
<line x1="280" y1="70" x2="290" y2="70" stroke="#64748b" stroke-width="2"/><polygon points="290,70 284,67 284,73" fill="#64748b"/>
<rect x="310" y="50" width="60" height="40" rx="6" fill="#dbeafe" stroke="#3b82f6" stroke-width="2"/>
<text x="340" y="76" text-anchor="middle" font-family="DejaVu Sans, sans-serif" font-size="11" fill="#1d4ed8" font-weight="700">h_3</text>
<text x="175" y="110" text-anchor="middle" font-family="DejaVu Sans, sans-serif" font-size="11" fill="#64748b">h_t depends on h_{t-1}</text></g>
  <text x="350" y="352" text-anchor="middle" font-family="DejaVu Sans, sans-serif" font-size="12" fill="#64748b">h_t depends on h_{t-1}; vanishing gradient risk</text>
</svg>