<svg xmlns="http://www.w3.org/2000/svg" viewBox="0 0 700 380" role="img" aria-label="Random Forest: majority vote">
  <rect width="700" height="380" rx="12" fill="#f8fafc"/>
  <rect x="24" y="20" width="652" height="56" rx="8" fill="#fff" stroke="#7c3aed" stroke-width="2"/>
  <text x="350" y="54" text-anchor="middle" font-family="DejaVu Sans, sans-serif" font-size="20" fill="#7c3aed" font-weight="700">Random Forest: majority vote</text>
  <rect x="24" y="88" width="652" height="252" rx="8" fill="#fff" stroke="#e2e8f0" stroke-width="1.5"/>
  <g transform="translate(90, 108)"><line x1="90" y1="52" x2="75" y2="70" stroke="#22c55e" stroke-width="1.5"/>
<line x1="90" y1="52" x2="105" y2="70" stroke="#22c55e" stroke-width="1.5"/>
<circle cx="90" cy="34" r="18" fill="#dcfce7" stroke="#22c55e" stroke-width="2"/>
<text x="90" y="39" text-anchor="middle" font-family="DejaVu Sans, sans-serif" font-size="10" fill="#15803d" font-weight="700">T1</text>
<text x="90" y="86" text-anchor="middle" font-family="DejaVu Sans, sans-serif" font-size="10" fill="#475569" font-weight="600">vote A</text>
<line x1="260" y1="52" x2="245" y2="70" stroke="#22c55e" stroke-width="1.5"/>
<line x1="260" y1="52" x2="275" y2="70" stroke="#22c55e" stroke-width="1.5"/>
<circle cx="260" cy="34" r="18" fill="#dcfce7" stroke="#22c55e" stroke-width="2"/>
<text x="260" y="39" text-anchor="middle" font-family="DejaVu Sans, sans-serif" font-size="10" fill="#15803d" font-weight="700">T2</text>
<text x="260" y="86" text-anchor="middle" font-family="DejaVu Sans, sans-serif" font-size="10" fill="#475569" font-weight="600">vote A</text>
<line x1="430" y1="52" x2="415" y2="70" stroke="#22c55e" stroke-width="1.5"/>
<line x1="430" y1="52" x2="445" y2="70" stroke="#22c55e" stroke-width="1.5"/>
<circle cx="430" cy="34" r="18" fill="#dcfce7" stroke="#22c55e" stroke-width="2"/>
<text x="430" y="39" text-anchor="middle" font-family="DejaVu Sans, sans-serif" font-size="10" fill="#15803d" font-weight="700">T3</text>
<text x="430" y="86" text-anchor="middle" font-family="DejaVu Sans, sans-serif" font-size="10" fill="#475569" font-weight="600">vote B</text>
<rect x="150" y="98" width="220" height="36" rx="8" fill="#ede9fe" stroke="#7c3aed" stroke-width="2"/>
<text x="260" y="122" text-anchor="middle" font-family="DejaVu Sans, sans-serif" font-size="12" fill="#6d28d9" font-weight="700">Majority vote → A</text></g>
  <text x="350" y="352" text-anchor="middle" font-family="DejaVu Sans, sans-serif" font-size="12" fill="#64748b">Tree 1→A, Tree 2→A, Tree 3→B → Majority A</text>
</svg>