<svg xmlns="http://www.w3.org/2000/svg" viewBox="0 0 960 540" role="img" aria-label="A shared CNN filter branches to detections at positions A and B">
<defs><marker id="a" markerWidth="4" markerHeight="4" refX="8" refY="4" markerUnits="strokeWidth" viewBox="0 0 8 8" orient="auto"><path d="M0 0L8 4L0 8Z" fill="#64748b"/></marker><clipPath id="b"><rect x="576.5" y="112" width="339.5" height="408"/></clipPath><style>.t{font:700 24px sans-serif;fill:#fff}.h{font:700 18px sans-serif;fill:#0f172a}.s{font:500 14px sans-serif;fill:#64748b}.f{stroke:#64748b;stroke-width:3;fill:none;marker-end:url(#a)}</style></defs>
<rect width="960" height="540" rx="24" fill="#f8fafc"/><rect x="28" y="24" width="904" height="68" rx="16" fill="#0f172a"/><text x="64" y="67" class="t">Convolution reuses the same detector</text><text x="896" y="66" text-anchor="end" class="s" fill="#cbd5e1">translation tolerance</text>
<rect x="44" y="112" width="872" height="408" rx="20" fill="#fff" stroke="#e2e8f0" stroke-width="2"/>
<rect x="75" y="251" width="190" height="130" rx="18" fill="#eff6ff" stroke="#3b82f6" stroke-width="3"/><rect x="365" y="251" width="210" height="130" rx="18" fill="#fef3c7" stroke="#f59e0b" stroke-width="3"/><rect x="685" y="176" width="200" height="120" rx="18" fill="#eff6ff" stroke="#3b82f6" stroke-width="3"/><rect x="685" y="336" width="200" height="120" rx="18" fill="#f0fdf4" stroke="#22c55e" stroke-width="3"/>
<text x="170" y="308" text-anchor="middle" class="h">Input feature map</text><text x="170" y="334" text-anchor="middle" class="s">scan the whole image</text>
<text x="470" y="308" text-anchor="middle" class="h">Shared filter</text><text x="470" y="334" text-anchor="middle" class="s">one learned kernel</text>
<text x="785" y="228" text-anchor="middle" class="h">Position A</text><text x="785" y="254" text-anchor="middle" class="s">feature detected</text>
<text x="785" y="388" text-anchor="middle" class="h">Position B</text><text x="785" y="414" text-anchor="middle" class="s">same feature detected</text>
<path d="M266.5 316H363.5" class="f"/><path d="M576.5 286L630 236H683.5" class="f" clip-path="url(#b)"/><path d="M576.5 346L630 396H683.5" class="f" clip-path="url(#b)"/><text x="785" y="320" text-anchor="middle" class="s">shared weights branch</text><text x="480" y="486" text-anchor="middle" class="s">The same learned filter recognizes a useful pattern wherever it appears.</text>
</svg>
