<svg xmlns="http://www.w3.org/2000/svg" viewBox="0 0 960 540" role="img" aria-label="CNN blocks from image to classifier">
<defs><marker id="a" markerWidth="8" markerHeight="8" refX="8" refY="4" markerUnits="userSpaceOnUse" viewBox="0 0 8 8" orient="auto"><path d="M0 0L8 4L0 8Z" fill="#64748b"/></marker><style>.t{font:700 24px sans-serif;fill:#fff}.h{font:700 17px sans-serif;fill:#0f172a}.s{font:500 13px sans-serif;fill:#64748b}.f{stroke:#64748b;stroke-width:3;fill:none;marker-end:url(#a)}</style></defs>
<rect width="960" height="540" rx="24" fill="#f8fafc"/><rect x="28" y="24" width="904" height="68" rx="16" fill="#0f172a"/><text x="64" y="67" class="t">CNN: from pixels to features</text><text x="896" y="66" text-anchor="end" class="s" fill="#cbd5e1">hierarchical visual representation</text>
<rect x="44" y="122" width="872" height="348" rx="20" fill="#fff" stroke="#e2e8f0" stroke-width="2"/><g><rect x="70" y="228" width="135" height="100" rx="16" fill="#e2e8f0" stroke="#64748b" stroke-width="3"/><rect x="245" y="228" width="135" height="100" rx="16" fill="#dbeafe" stroke="#3b82f6" stroke-width="3"/><rect x="420" y="228" width="135" height="100" rx="16" fill="#ede9fe" stroke="#8b5cf6" stroke-width="3"/><rect x="595" y="228" width="135" height="100" rx="16" fill="#ffedd5" stroke="#f97316" stroke-width="3"/><rect x="770" y="228" width="120" height="100" rx="16" fill="#dcfce7" stroke="#22c55e" stroke-width="3"/></g>
<g text-anchor="middle"><text x="137" y="265" class="h">Image</text><text x="137" y="291" class="s">pixels</text><text x="312" y="265" class="h">Conv</text><text x="312" y="291" class="s">detect edges</text><text x="487" y="265" class="h">ReLU</text><text x="487" y="291" class="s">keep signals</text><text x="662" y="265" class="h">Pool</text><text x="662" y="291" class="s">compress</text><text x="830" y="265" class="h">Classify</text><text x="830" y="291" class="s">output</text></g><path d="M206.5 278H243.5" class="f"/><path d="M381.5 278H418.5" class="f"/><path d="M556.5 278H593.5" class="f"/><path d="M731.5 278H768.5" class="f"/><text x="480" y="398" text-anchor="middle" class="s">early layers learn local patterns; deeper layers combine them into objects</text>
</svg>
