<svg xmlns="http://www.w3.org/2000/svg" viewBox="0 0 700 320" role="img" aria-label="Network layers">
  <rect width="700" height="320" rx="12" fill="#f8fafc"/>
  <rect x="24" y="20" width="652" height="52" rx="8" fill="#fff" stroke="#3b82f6" stroke-width="2"/>
  <text x="350" y="52" text-anchor="middle" font-family="DejaVu Sans, sans-serif" font-size="20" fill="#3b82f6" font-weight="700">Network layers</text>
  <rect x="24" y="84" width="652" height="212" rx="8" fill="#fff" stroke="#e2e8f0" stroke-width="1.5"/>
  <g transform="translate(40, 100)"><circle cx="40" cy="40" r="14" fill="#dbeafe" stroke="#3b82f6" stroke-width="2"/>
<text x="40" y="45" text-anchor="middle" font-family="DejaVu Sans, sans-serif" font-size="9" fill="#1d4ed8" font-weight="600">x1</text>
<circle cx="40" cy="76" r="14" fill="#dbeafe" stroke="#3b82f6" stroke-width="2"/>
<text x="40" y="81" text-anchor="middle" font-family="DejaVu Sans, sans-serif" font-size="9" fill="#1d4ed8" font-weight="600">x2</text>
<circle cx="40" cy="112" r="14" fill="#dbeafe" stroke="#3b82f6" stroke-width="2"/>
<text x="40" y="117" text-anchor="middle" font-family="DejaVu Sans, sans-serif" font-size="9" fill="#1d4ed8" font-weight="600">x3</text>
<circle cx="180" cy="40" r="14" fill="#dbeafe" stroke="#3b82f6" stroke-width="2"/>
<text x="180" y="45" text-anchor="middle" font-family="DejaVu Sans, sans-serif" font-size="9" fill="#1d4ed8" font-weight="600">h1</text>
<circle cx="180" cy="76" r="14" fill="#dbeafe" stroke="#3b82f6" stroke-width="2"/>
<text x="180" y="81" text-anchor="middle" font-family="DejaVu Sans, sans-serif" font-size="9" fill="#1d4ed8" font-weight="600">h2</text>
<circle cx="320" cy="40" r="14" fill="#dbeafe" stroke="#3b82f6" stroke-width="2"/>
<text x="320" y="45" text-anchor="middle" font-family="DejaVu Sans, sans-serif" font-size="9" fill="#1d4ed8" font-weight="600">y</text>
<line x1="54" y1="40" x2="166" y2="40" stroke="#cbd5e1" stroke-width="1"/>
<line x1="54" y1="40" x2="166" y2="76" stroke="#cbd5e1" stroke-width="1"/>
<line x1="54" y1="76" x2="166" y2="40" stroke="#cbd5e1" stroke-width="1"/>
<line x1="54" y1="76" x2="166" y2="76" stroke="#cbd5e1" stroke-width="1"/>
<line x1="54" y1="112" x2="166" y2="40" stroke="#cbd5e1" stroke-width="1"/>
<line x1="54" y1="112" x2="166" y2="76" stroke="#cbd5e1" stroke-width="1"/>
<line x1="194" y1="40" x2="306" y2="58" stroke="#cbd5e1" stroke-width="1"/>
<line x1="194" y1="76" x2="306" y2="58" stroke="#cbd5e1" stroke-width="1"/></g>
  <text x="350" y="296" text-anchor="middle" font-family="DejaVu Sans, sans-serif" font-size="13" fill="#64748b">Input layer → hidden layer → output layer</text>
</svg>