<svg xmlns="http://www.w3.org/2000/svg" viewBox="0 0 960 540" role="img" aria-label="ResNet transfer learning flow from image to two-class prediction">
<defs><marker id="a" markerWidth="4" markerHeight="4" refX="8" refY="4" markerUnits="strokeWidth" viewBox="0 0 8 8" orient="auto"><path d="M0 0L8 4L0 8Z" fill="#64748b"/></marker><style>.t{font:700 24px sans-serif;fill:#fff}.h{font:700 17px sans-serif;fill:#0f172a}.s{font:500 13px sans-serif;fill:#64748b}.f{stroke:#64748b;stroke-width:3;fill:none;marker-end:url(#a)}</style></defs>
<rect width="960" height="540" rx="24" fill="#f8fafc"/><rect x="28" y="24" width="904" height="68" rx="16" fill="#0f172a"/><text x="64" y="67" class="t">ResNet18 transfer-learning flow</text><text x="896" y="66" text-anchor="end" class="s" fill="#cbd5e1">frozen feature extractor</text>
<rect x="44" y="122" width="872" height="348" rx="20" fill="#fff" stroke="#e2e8f0" stroke-width="2"/><g><rect x="74" y="228" width="150" height="98" rx="15" fill="#dbeafe" stroke="#3b82f6" stroke-width="3"/><rect x="274" y="228" width="190" height="98" rx="15" fill="#e2e8f0" stroke="#64748b" stroke-width="3"/><rect x="514" y="228" width="150" height="98" rx="15" fill="#ede9fe" stroke="#8b5cf6" stroke-width="3"/><rect x="714" y="228" width="150" height="98" rx="15" fill="#dcfce7" stroke="#22c55e" stroke-width="3"/></g><g text-anchor="middle"><text x="149" y="266" class="h">Image</text><text x="149" y="292" class="s">224 × 224</text><text x="369" y="266" class="h">ResNet18 backbone</text><text x="369" y="292" class="s">frozen weights</text><text x="589" y="266" class="h">new fc layer</text><text x="589" y="292" class="s">trainable</text><text x="789" y="266" class="h">prediction</text><text x="789" y="292" class="s">cat / dog</text></g><path d="M225.5 277H272.5" class="f"/><path d="M465.5 277H512.5" class="f"/><path d="M665.5 277H712.5" class="f"/><rect x="210" y="164" width="540" height="34" rx="10" fill="#f1f5f9"/><text x="480" y="187" text-anchor="middle" class="s">Only the task-specific head needs to learn at first.</text>
</svg>
