<svg xmlns="http://www.w3.org/2000/svg" viewBox="0 0 700 380" role="img" aria-label="MCP architecture">
  <rect width="700" height="380" rx="12" fill="#f8fafc"/>
  <rect x="24" y="20" width="652" height="56" rx="8" fill="#fff" stroke="#3b82f6" stroke-width="2"/>
  <text x="350" y="54" text-anchor="middle" font-family="DejaVu Sans, sans-serif" font-size="20" fill="#3b82f6" font-weight="700">MCP architecture</text>
  <rect x="24" y="88" width="652" height="252" rx="8" fill="#fff" stroke="#e2e8f0" stroke-width="1.5"/>
  <g transform="translate(90, 108)"><rect x="14" y="22" width="210" height="110" rx="10" fill="#f1f5f9" stroke="#64748b" stroke-width="2"/>
<text x="119" y="44" text-anchor="middle" font-family="DejaVu Sans, sans-serif" font-size="12" fill="#475569" font-weight="700">Host</text>
<text x="119" y="60" text-anchor="middle" font-family="DejaVu Sans, sans-serif" font-size="9" fill="#94a3b8">(Claude / IDE app)</text>
<rect x="38" y="70" width="162" height="46" rx="8" fill="#dbeafe" stroke="#3b82f6" stroke-width="2"/>
<text x="119" y="91" text-anchor="middle" font-family="DejaVu Sans, sans-serif" font-size="12" fill="#1d4ed8" font-weight="700">MCP Client</text>
<text x="119" y="107" text-anchor="middle" font-family="DejaVu Sans, sans-serif" font-size="9" fill="#64748b">JSON-RPC</text>
<line x1="224" y1="93" x2="300" y2="93" stroke="#64748b" stroke-width="2"/>
<polygon points="300,93 292,89 292,97" fill="#64748b"/>
<text x="262" y="84" text-anchor="middle" font-family="DejaVu Sans, sans-serif" font-size="9" fill="#64748b">stdio/HTTP</text>
<rect x="300" y="52" width="150" height="80" rx="8" fill="#ede9fe" stroke="#7c3aed" stroke-width="2"/>
<text x="375" y="80" text-anchor="middle" font-family="DejaVu Sans, sans-serif" font-size="12" fill="#6d28d9" font-weight="700">MCP Server</text>
<text x="375" y="100" text-anchor="middle" font-family="DejaVu Sans, sans-serif" font-size="10" fill="#64748b">Tools / Resources</text>
<text x="375" y="116" text-anchor="middle" font-family="DejaVu Sans, sans-serif" font-size="10" fill="#64748b">Prompts</text></g>
  <text x="350" y="352" text-anchor="middle" font-family="DejaVu Sans, sans-serif" font-size="12" fill="#64748b">Client discovers server → call tools via protocol</text>
</svg>