<svg xmlns="http://www.w3.org/2000/svg" viewBox="0 0 700 320" role="img" aria-label="RAG pipeline">
  <rect width="700" height="320" rx="12" fill="#f8fafc"/>
  <rect x="24" y="20" width="652" height="52" rx="8" fill="#fff" stroke="#3b82f6" stroke-width="2"/>
  <text x="350" y="52" text-anchor="middle" font-family="DejaVu Sans, sans-serif" font-size="20" fill="#3b82f6" font-weight="700">RAG pipeline</text>
  <rect x="24" y="84" width="652" height="212" rx="8" fill="#fff" stroke="#e2e8f0" stroke-width="1.5"/>
  <g transform="translate(40, 100)"><rect x="0" y="45" width="84" height="44" rx="8" fill="#3b82f622" stroke="#3b82f6" stroke-width="2"/>
<text x="42.0" y="73" text-anchor="middle" font-family="DejaVu Sans, sans-serif" font-size="11" fill="#3b82f6" font-weight="600">Docs</text>
<line x1="84" y1="67" x2="112" y2="67" stroke="#64748b" stroke-width="1.5"/><polygon points="112,67 106,64 106,70" fill="#64748b"/>
<rect x="120" y="45" width="84" height="44" rx="8" fill="#8b5cf622" stroke="#8b5cf6" stroke-width="2"/>
<text x="162.0" y="73" text-anchor="middle" font-family="DejaVu Sans, sans-serif" font-size="11" fill="#8b5cf6" font-weight="600">Chunk</text>
<line x1="204" y1="67" x2="232" y2="67" stroke="#64748b" stroke-width="1.5"/><polygon points="232,67 226,64 226,70" fill="#64748b"/>
<rect x="240" y="45" width="84" height="44" rx="8" fill="#f59e0b22" stroke="#f59e0b" stroke-width="2"/>
<text x="282.0" y="73" text-anchor="middle" font-family="DejaVu Sans, sans-serif" font-size="11" fill="#f59e0b" font-weight="600">Embed</text>
<line x1="324" y1="67" x2="352" y2="67" stroke="#64748b" stroke-width="1.5"/><polygon points="352,67 346,64 346,70" fill="#64748b"/>
<rect x="360" y="45" width="84" height="44" rx="8" fill="#22c55e22" stroke="#22c55e" stroke-width="2"/>
<text x="402.0" y="73" text-anchor="middle" font-family="DejaVu Sans, sans-serif" font-size="11" fill="#22c55e" font-weight="600">Retrieve</text>
<line x1="444" y1="67" x2="472" y2="67" stroke="#64748b" stroke-width="1.5"/><polygon points="472,67 466,64 466,70" fill="#64748b"/>
<rect x="480" y="45" width="84" height="44" rx="8" fill="#ec489922" stroke="#ec4899" stroke-width="2"/>
<text x="522.0" y="73" text-anchor="middle" font-family="DejaVu Sans, sans-serif" font-size="11" fill="#ec4899" font-weight="600">LLM</text></g>
  <text x="350" y="296" text-anchor="middle" font-family="DejaVu Sans, sans-serif" font-size="13" fill="#64748b">Chunk docs → embed → store → query → top-k → LLM</text>
</svg>