<svg xmlns="http://www.w3.org/2000/svg" viewBox="0 0 700 380" role="img" aria-label="Evaluation harness">
  <rect width="700" height="380" rx="12" fill="#f8fafc"/>
  <rect x="24" y="20" width="652" height="56" rx="8" fill="#fff" stroke="#7c3aed" stroke-width="2"/>
  <text x="350" y="54" text-anchor="middle" font-family="DejaVu Sans, sans-serif" font-size="20" fill="#7c3aed" font-weight="700">Evaluation harness</text>
  <rect x="24" y="88" width="652" height="252" rx="8" fill="#fff" stroke="#e2e8f0" stroke-width="1.5"/>
  <g transform="translate(90, 108)"><rect x="30" y="30" width="100" height="36" rx="6" fill="#dbeafe" stroke="#3b82f6" stroke-width="2"/>
<text x="80" y="54" text-anchor="middle" font-family="DejaVu Sans, sans-serif" font-size="11" fill="#1d4ed8" font-weight="700">Test cases</text>
<line x1="130" y1="48" x2="180" y2="48" stroke="#64748b" stroke-width="2"/><polygon points="180,48 174,45 174,51" fill="#64748b"/>
<rect x="180" y="30" width="120" height="36" rx="6" fill="#ede9fe" stroke="#7c3aed" stroke-width="2"/>
<text x="240" y="54" text-anchor="middle" font-family="DejaVu Sans, sans-serif" font-size="11" fill="#6d28d9" font-weight="700">LLM judge</text>
<line x1="300" y1="48" x2="350" y2="48" stroke="#64748b" stroke-width="2"/><polygon points="350,48 344,45 344,51" fill="#64748b"/>
<rect x="350" y="30" width="100" height="36" rx="6" fill="#dcfce7" stroke="#22c55e" stroke-width="2"/>
<text x="400" y="54" text-anchor="middle" font-family="DejaVu Sans, sans-serif" font-size="11" fill="#15803d" font-weight="700">Scores</text>
<text x="240" y="90" text-anchor="middle" font-family="DejaVu Sans, sans-serif" font-size="11" fill="#64748b">Regression tracking</text></g>
  <text x="350" y="352" text-anchor="middle" font-family="DejaVu Sans, sans-serif" font-size="12" fill="#64748b">Test cases + LLM-as-judge + regression tracking</text>
</svg>