<svg xmlns="http://www.w3.org/2000/svg" viewBox="0 0 800 380" role="img" aria-label="Input and output guardrails check content before and after an LLM"><defs><filter id="s"><feDropShadow dx="0" dy="6" stdDeviation="7" flood-opacity=".1"/></filter><marker id="a" markerWidth="8" markerHeight="8" refX="7" refY="4" orient="auto"><path d="M0 0L8 4L0 8Z" fill="#475569"/></marker></defs><rect width="800" height="380" rx="20" fill="#f8fafc"/><rect x="24" y="20" width="752" height="56" rx="14" fill="#fff" stroke="#3b82f6" stroke-width="2" filter="url(#s)"/><text x="400" y="55" text-anchor="middle" font-family="Arial,sans-serif" font-size="22" fill="#1d4ed8" font-weight="700">Input / output guardrails</text><rect x="35" y="96" width="730" height="210" rx="18" fill="#fff" stroke="#dbeafe" stroke-width="2" filter="url(#s)"/><rect x="45" y="165" width="120" height="65" rx="12" fill="#eff6ff" stroke="#3b82f6" stroke-width="2"/><text x="105" y="202" text-anchor="middle" font-family="Arial,sans-serif" font-size="14" fill="#1d4ed8" font-weight="700">Input</text><path d="M165 197H200" fill="none" stroke="#475569" stroke-width="2" marker-end="url(#a)"/><rect x="200" y="165" width="140" height="65" rx="12" fill="#fef2f2" stroke="#ef4444" stroke-width="2"/><text x="270" y="191" text-anchor="middle" font-family="Arial,sans-serif" font-size="13" fill="#b91c1c" font-weight="700">Input check</text><text x="270" y="211" text-anchor="middle" font-family="Arial,sans-serif" font-size="10" fill="#64748b">filter / rewrite</text><path d="M340 197H365" fill="none" stroke="#475569" stroke-width="2" marker-end="url(#a)"/><rect x="365" y="165" width="100" height="65" rx="12" fill="#f5f3ff" stroke="#8b5cf6" stroke-width="2"/><text x="415" y="202" text-anchor="middle" font-family="Arial,sans-serif" font-size="14" fill="#6d28d9" font-weight="700">LLM</text><path d="M465 197H500" fill="none" stroke="#475569" stroke-width="2" marker-end="url(#a)"/><rect x="500" y="165" width="140" height="65" rx="12" fill="#fef2f2" stroke="#ef4444" stroke-width="2"/><text x="570" y="191" text-anchor="middle" font-family="Arial,sans-serif" font-size="13" fill="#b91c1c" font-weight="700">Output check</text><text x="570" y="211" text-anchor="middle" font-family="Arial,sans-serif" font-size="10" fill="#64748b">filter / rewrite</text><path d="M640 197H655" fill="none" stroke="#475569" stroke-width="2" marker-end="url(#a)"/><rect x="655" y="165" width="110" height="65" rx="12" fill="#f0fdf4" stroke="#22c55e" stroke-width="2"/><text x="710" y="193" text-anchor="middle" font-family="Arial,sans-serif" font-size="12" fill="#15803d" font-weight="700">Safe output</text><text x="710" y="211" text-anchor="middle" font-family="Arial,sans-serif" font-size="10" fill="#64748b">release</text><text x="400" y="348" text-anchor="middle" font-family="Arial,sans-serif" font-size="13" fill="#475569">Check both sides of the model: sanitize input and output</text></svg>
