<svg xmlns="http://www.w3.org/2000/svg" viewBox="0 0 900 520" role="img" aria-label="K-Means and DBSCAN compare distance based round clusters with density based arbitrary shapes and noise">
  <defs>
    <filter id="shadow" x="-20%" y="-20%" width="140%" height="140%"><feDropShadow dx="0" dy="5" stdDeviation="5" flood-color="#0f172a" flood-opacity=".10"/></filter>
  </defs>
  <rect width="900" height="520" rx="28" fill="#f7f9fc"/>
  <rect x="32" y="28" width="836" height="76" rx="18" fill="#fff" stroke="#2563eb" stroke-width="2" filter="url(#shadow)"/>
  <text x="64" y="60" font-family="DejaVu Sans, sans-serif" font-size="14" letter-spacing="2" fill="#2563eb" font-weight="700">CLUSTERING CHOICES</text>
  <text x="64" y="86" font-family="DejaVu Sans, sans-serif" font-size="22" fill="#0f172a" font-weight="700">Choose the grouping rule that matches your data</text>
  <rect x="32" y="126" width="402" height="356" rx="22" fill="#fff" stroke="#dbe3ef" stroke-width="2"/>
  <rect x="466" y="126" width="402" height="356" rx="22" fill="#fff" stroke="#dbe3ef" stroke-width="2"/>
  <rect x="32" y="126" width="402" height="62" rx="22" fill="#fff7ed" stroke="#f97316" stroke-width="2"/>
  <rect x="466" y="126" width="402" height="62" rx="22" fill="#f0fdf4" stroke="#16a34a" stroke-width="2"/>
  <text x="233" y="164" text-anchor="middle" font-family="DejaVu Sans, sans-serif" font-size="18" fill="#c2410c" font-weight="700">K-Means</text>
  <text x="667" y="164" text-anchor="middle" font-family="DejaVu Sans, sans-serif" font-size="18" fill="#15803d" font-weight="700">DBSCAN</text>
  <g filter="url(#shadow)">
    <circle cx="140" cy="260" r="10" fill="#f97316"/><circle cx="164" cy="244" r="10" fill="#f97316"/><circle cx="186" cy="266" r="10" fill="#f97316"/><circle cx="149" cy="252" r="16" fill="none" stroke="#f97316" stroke-width="2"/>
    <circle cx="288" cy="238" r="10" fill="#8b5cf6"/><circle cx="312" cy="254" r="10" fill="#8b5cf6"/><circle cx="300" cy="274" r="10" fill="#8b5cf6"/><circle cx="300" cy="254" r="16" fill="none" stroke="#8b5cf6" stroke-width="2"/>
    <text x="233" y="326" text-anchor="middle" font-family="DejaVu Sans, sans-serif" font-size="15" fill="#475569">needs K • compact blobs</text>
    <path d="M514 260c30-42 74-42 104 0c-30 42-74 42-104 0Z" fill="#dbeafe" fill-opacity=".35" stroke="#3b82f6" stroke-width="2"/>
    <circle cx="532" cy="260" r="8" fill="#3b82f6"/><circle cx="554" cy="242" r="8" fill="#3b82f6"/><circle cx="578" cy="250" r="8" fill="#3b82f6"/><circle cx="566" cy="276" r="8" fill="#3b82f6"/>
    <path d="M688 292c30-42 74-42 104 0c-30 42-74 42-104 0Z" fill="#ede9fe" fill-opacity=".45" stroke="#8b5cf6" stroke-width="2"/>
    <circle cx="706" cy="292" r="8" fill="#8b5cf6"/><circle cx="728" cy="274" r="8" fill="#8b5cf6"/><circle cx="752" cy="282" r="8" fill="#8b5cf6"/><circle cx="740" cy="308" r="8" fill="#8b5cf6"/>
    <circle cx="650" cy="360" r="7" fill="#94a3b8"/><circle cx="674" cy="374" r="7" fill="#94a3b8"/>
    <text x="667" y="414" text-anchor="middle" font-family="DejaVu Sans, sans-serif" font-size="15" fill="#475569">density • arbitrary shapes • noise</text>
  </g>
  <text x="76" y="454" font-family="DejaVu Sans, sans-serif" font-size="14" fill="#64748b">Fast and simple when distance is meaningful.</text>
  <text x="510" y="454" font-family="DejaVu Sans, sans-serif" font-size="14" fill="#64748b">Finds dense regions without choosing K.</text>
</svg>
