<svg xmlns="http://www.w3.org/2000/svg" viewBox="0 0 700 380" role="img" aria-label="Image classification pipeline">
  <rect width="700" height="380" rx="12" fill="#f8fafc"/>
  <rect x="24" y="20" width="652" height="56" rx="8" fill="#fff" stroke="#3b82f6" stroke-width="2"/>
  <text x="350" y="54" text-anchor="middle" font-family="DejaVu Sans, sans-serif" font-size="20" fill="#3b82f6" font-weight="700">Image classification pipeline</text>
  <rect x="24" y="88" width="652" height="252" rx="8" fill="#fff" stroke="#e2e8f0" stroke-width="1.5"/>
  <g transform="translate(90, 108)"><rect x="0" y="30" width="72" height="48" rx="8" fill="#3b82f622" stroke="#3b82f6" stroke-width="2"/>
<text x="36.0" y="57.85" text-anchor="middle" font-family="DejaVu Sans, sans-serif" font-size="11" fill="#3b82f6" font-weight="600">Load</text>
<line x1="72" y1="54.0" x2="92" y2="54.0" stroke="#64748b" stroke-width="1.5"/><polygon points="92,54.0 86,51.0 86,57.0" fill="#64748b"/>
<rect x="100" y="30" width="72" height="48" rx="8" fill="#f59e0b22" stroke="#f59e0b" stroke-width="2"/>
<text x="136.0" y="57.85" text-anchor="middle" font-family="DejaVu Sans, sans-serif" font-size="11" fill="#f59e0b" font-weight="600">Augment</text>
<line x1="172" y1="54.0" x2="192" y2="54.0" stroke="#64748b" stroke-width="1.5"/><polygon points="192,54.0 186,51.0 186,57.0" fill="#64748b"/>
<rect x="200" y="30" width="85" height="48" rx="8" fill="#22c55e22" stroke="#22c55e" stroke-width="2"/>
<text x="242.5" y="57.85" text-anchor="middle" font-family="DejaVu Sans, sans-serif" font-size="11" fill="#22c55e" font-weight="600">Fine-tune</text>
<line x1="285" y1="54.0" x2="305" y2="54.0" stroke="#64748b" stroke-width="1.5"/><polygon points="305,54.0 299,51.0 299,57.0" fill="#64748b"/>
<rect x="313" y="30" width="72" height="48" rx="8" fill="#ec489922" stroke="#ec4899" stroke-width="2"/>
<text x="349.0" y="57.85" text-anchor="middle" font-family="DejaVu Sans, sans-serif" font-size="11" fill="#ec4899" font-weight="600">Plot</text></g>
  <text x="350" y="352" text-anchor="middle" font-family="DejaVu Sans, sans-serif" font-size="12" fill="#64748b">End-to-end image ML project</text>
</svg>