<svg xmlns="http://www.w3.org/2000/svg" viewBox="0 0 700 320" role="img" aria-label="Random Forest: majority vote">
  <rect width="700" height="320" rx="12" fill="#f8fafc"/>
  <rect x="24" y="20" width="652" height="52" rx="8" fill="#fff" stroke="#7c3aed" stroke-width="2"/>
  <text x="350" y="52" text-anchor="middle" font-family="DejaVu Sans, sans-serif" font-size="20" fill="#7c3aed" font-weight="700">Random Forest: majority vote</text>
  <rect x="24" y="84" width="652" height="212" rx="8" fill="#fff" stroke="#e2e8f0" stroke-width="1.5"/>
  <g transform="translate(40, 100)"><line x1="70" y1="50" x2="55" y2="65" stroke="#22c55e" stroke-width="1.5"/>
<line x1="70" y1="50" x2="85" y2="65" stroke="#22c55e" stroke-width="1.5"/>
<circle cx="70" cy="35" r="16" fill="#dcfce7" stroke="#22c55e" stroke-width="2"/>
<text x="70" y="40" text-anchor="middle" font-family="DejaVu Sans, sans-serif" font-size="12" fill="#15803d" font-weight="700">?</text>
<text x="70" y="78" text-anchor="middle" font-family="DejaVu Sans, sans-serif" font-size="11" fill="#475569" font-weight="600">→ A</text>
<line x1="230" y1="50" x2="215" y2="65" stroke="#22c55e" stroke-width="1.5"/>
<line x1="230" y1="50" x2="245" y2="65" stroke="#22c55e" stroke-width="1.5"/>
<circle cx="230" cy="35" r="16" fill="#dcfce7" stroke="#22c55e" stroke-width="2"/>
<text x="230" y="40" text-anchor="middle" font-family="DejaVu Sans, sans-serif" font-size="12" fill="#15803d" font-weight="700">?</text>
<text x="230" y="78" text-anchor="middle" font-family="DejaVu Sans, sans-serif" font-size="11" fill="#475569" font-weight="600">→ A</text>
<line x1="390" y1="50" x2="375" y2="65" stroke="#22c55e" stroke-width="1.5"/>
<line x1="390" y1="50" x2="405" y2="65" stroke="#22c55e" stroke-width="1.5"/>
<circle cx="390" cy="35" r="16" fill="#dcfce7" stroke="#22c55e" stroke-width="2"/>
<text x="390" y="40" text-anchor="middle" font-family="DejaVu Sans, sans-serif" font-size="12" fill="#15803d" font-weight="700">?</text>
<text x="390" y="78" text-anchor="middle" font-family="DejaVu Sans, sans-serif" font-size="11" fill="#475569" font-weight="600">→ B</text>
<rect x="130" y="88" width="180" height="32" rx="8" fill="#ede9fe" stroke="#7c3aed" stroke-width="2"/>
<text x="220" y="110" text-anchor="middle" font-family="DejaVu Sans, sans-serif" font-size="13" fill="#6d28d9" font-weight="700">Majority → A</text></g>
  <text x="350" y="296" text-anchor="middle" font-family="DejaVu Sans, sans-serif" font-size="13" fill="#64748b">Tree 1→A, Tree 2→A, Tree 3→B → Majority A</text>
</svg>