<svg xmlns="http://www.w3.org/2000/svg" viewBox="0 0 700 380" role="img" aria-label="LangChain RAG">
  <rect width="700" height="380" rx="12" fill="#f8fafc"/>
  <rect x="24" y="20" width="652" height="56" rx="8" fill="#fff" stroke="#3b82f6" stroke-width="2"/>
  <text x="350" y="54" text-anchor="middle" font-family="DejaVu Sans, sans-serif" font-size="20" fill="#3b82f6" font-weight="700">LangChain RAG</text>
  <rect x="24" y="88" width="652" height="252" rx="8" fill="#fff" stroke="#e2e8f0" stroke-width="1.5"/>
  <g transform="translate(90, 108)"><rect x="0" y="30" width="126" height="48" rx="8" fill="#3b82f622" stroke="#3b82f6" stroke-width="2"/>
<text x="63.0" y="57.5" text-anchor="middle" font-family="DejaVu Sans, sans-serif" font-size="10" fill="#3b82f6" font-weight="600">Document loader</text>
<line x1="126" y1="54.0" x2="146" y2="54.0" stroke="#64748b" stroke-width="1.5"/><polygon points="146,54.0 140,51.0 140,57.0" fill="#64748b"/>
<rect x="154" y="30" width="105" height="48" rx="8" fill="#8b5cf622" stroke="#8b5cf6" stroke-width="2"/>
<text x="206.5" y="57.5" text-anchor="middle" font-family="DejaVu Sans, sans-serif" font-size="10" fill="#8b5cf6" font-weight="600">Vector store</text>
<line x1="259" y1="54.0" x2="279" y2="54.0" stroke="#64748b" stroke-width="1.5"/><polygon points="279,54.0 273,51.0 273,57.0" fill="#64748b"/>
<rect x="287" y="30" width="98" height="48" rx="8" fill="#22c55e22" stroke="#22c55e" stroke-width="2"/>
<text x="336.0" y="57.5" text-anchor="middle" font-family="DejaVu Sans, sans-serif" font-size="10" fill="#22c55e" font-weight="600">RetrievalQA</text></g>
  <text x="350" y="352" text-anchor="middle" font-family="DejaVu Sans, sans-serif" font-size="12" fill="#64748b">Plug-and-play RAG components</text>
</svg>