<svg xmlns="http://www.w3.org/2000/svg" viewBox="0 0 700 380" role="img" aria-label="Attention weights: Query × Key">
  <rect width="700" height="380" rx="12" fill="#f8fafc"/>
  <rect x="24" y="20" width="652" height="56" rx="8" fill="#fff" stroke="#3b82f6" stroke-width="2"/>
  <text x="350" y="54" text-anchor="middle" font-family="DejaVu Sans, sans-serif" font-size="20" fill="#3b82f6" font-weight="700">Attention weights: Query × Key</text>
  <rect x="24" y="88" width="652" height="252" rx="8" fill="#fff" stroke="#e2e8f0" stroke-width="1.5"/>
  <g transform="translate(90, 108)"><rect x="20" y="20" width="360" height="100" rx="6" fill="#fff" stroke="#e2e8f0" stroke-width="1.5"/>
<rect x="30" y="30" width="75" height="18" rx="2" fill="rgba(59,130,246,1.00)" stroke="#cbd5e1" stroke-width="0.5"/>
<rect x="115" y="30" width="75" height="18" rx="2" fill="rgba(59,130,246,0.40)" stroke="#cbd5e1" stroke-width="0.5"/>
<rect x="200" y="30" width="75" height="18" rx="2" fill="rgba(59,130,246,0.45)" stroke="#cbd5e1" stroke-width="0.5"/>
<rect x="285" y="30" width="75" height="18" rx="2" fill="rgba(59,130,246,0.50)" stroke="#cbd5e1" stroke-width="0.5"/>
<rect x="30" y="52" width="75" height="18" rx="2" fill="rgba(59,130,246,0.40)" stroke="#cbd5e1" stroke-width="0.5"/>
<rect x="115" y="52" width="75" height="18" rx="2" fill="rgba(59,130,246,1.00)" stroke="#cbd5e1" stroke-width="0.5"/>
<rect x="200" y="52" width="75" height="18" rx="2" fill="rgba(59,130,246,0.40)" stroke="#cbd5e1" stroke-width="0.5"/>
<rect x="285" y="52" width="75" height="18" rx="2" fill="rgba(59,130,246,0.45)" stroke="#cbd5e1" stroke-width="0.5"/>
<rect x="30" y="74" width="75" height="18" rx="2" fill="rgba(59,130,246,0.45)" stroke="#cbd5e1" stroke-width="0.5"/>
<rect x="115" y="74" width="75" height="18" rx="2" fill="rgba(59,130,246,0.40)" stroke="#cbd5e1" stroke-width="0.5"/>
<rect x="200" y="74" width="75" height="18" rx="2" fill="rgba(59,130,246,1.00)" stroke="#cbd5e1" stroke-width="0.5"/>
<rect x="285" y="74" width="75" height="18" rx="2" fill="rgba(59,130,246,0.40)" stroke="#cbd5e1" stroke-width="0.5"/>
<rect x="30" y="96" width="75" height="18" rx="2" fill="rgba(59,130,246,0.50)" stroke="#cbd5e1" stroke-width="0.5"/>
<rect x="115" y="96" width="75" height="18" rx="2" fill="rgba(59,130,246,0.45)" stroke="#cbd5e1" stroke-width="0.5"/>
<rect x="200" y="96" width="75" height="18" rx="2" fill="rgba(59,130,246,0.40)" stroke="#cbd5e1" stroke-width="0.5"/>
<rect x="285" y="96" width="75" height="18" rx="2" fill="rgba(59,130,246,1.00)" stroke="#cbd5e1" stroke-width="0.5"/>
<text x="200" y="135" text-anchor="middle" font-family="DejaVu Sans, sans-serif" font-size="11" fill="#1d4ed8" font-weight="600">Query × Key → attention weights</text></g>
  <text x="350" y="352" text-anchor="middle" font-family="DejaVu Sans, sans-serif" font-size="12" fill="#64748b">Weighted sum of Values for each token</text>
</svg>